<svg xmlns="http://www.w3.org/2000/svg" width="550" height="550"><path fill="#090902" d="M448 61c.555.44 1.11.88 1.683 1.332C464.15 73.806 477.942 87.197 489 102l1.556 2.044C498.64 114.678 506.219 125.488 513 137l1.167 1.97c16.526 28.11 27.134 58.233 32.583 90.343l.64 3.756c2.297 14.176 2.818 28.23 2.798 42.556l-.002 2.402c-.025 12.101-.388 23.988-2.186 35.973l-.375 2.66C540.834 363.953 520.771 410.34 490 447l-2.55 3.074c-16.448 19.72-16.448 19.72-25.126 26.973a221 221 0 0 0-5.554 4.844C416.98 517.449 366.618 540.097 314 548l-2.2.355c-34.244 5.378-71.424 2.112-104.8-6.355l-2.625-.651C135.88 524.073 75.252 477.397 39 417c-3.51-5.909-6.811-11.913-10-18l-1.246-2.355C8.416 359.615-.216 317.454-.25 275.875l-.002-2.233C-.168 215.275 18.38 157.442 54 111l1.164-1.554C62.764 99.306 71.193 90.1 80 81l1.564-1.63C87.982 72.691 94.707 66.7 102 61l3.734-2.992c14.97-11.858 31.054-21.978 48.348-30.093 1.93-.92 3.832-1.885 5.734-2.86C249.612-20.227 366.486-3.794 448 61"/><path fill="#A45139" d="M202.802 137.911c5.632 5.02 9.837 10.312 13.198 17.089l1.652 3.293L219 161l3.305-1.172c8.025-2.791 16.016-5.313 24.32-7.14l2.183-.482c26.504-5.592 51.653-.686 77.192 6.794l.996-2.055c7.611-14.892 19.988-27.266 35.895-32.984 16.234-4.454 34.538-3.51 49.359 4.727 5.424 3.532 10.138 7.788 14.75 12.312l1.715 1.64c10.716 11.257 14.78 27.425 14.641 42.543-.436 13.098-5.8 24.358-13.356 34.817l-2.187 3.063C421.654 230.168 412.638 235.484 404 239h-2l1.023 3.48 1.352 4.708.672 2.271c3.654 12.843 4.328 25.606 4.562 38.861l.113 5.379c.392 19.7.5 39.404.518 59.109.006 5.158.03 10.317.058 15.475.019 4.027.024 8.054.026 12.08q.004 2.86.024 5.72c.017 2.625.015 5.249.008 7.874l.028 2.35c-.04 5.214-.04 5.214-1.75 7.598-2.33 1.561-4.694 2.983-7.138 4.36l-3.392 1.924-3.666 2.061-5.74 3.252-3.926 2.224A2248 2248 0 0 0 366 428.5a4040 4040 0 0 1-20.008 11.504l-1.78 1.015q-4.415 2.52-8.835 5.033a1142 1142 0 0 0-17.408 10.104l-3.367 1.992q-3.165 1.877-6.317 3.776l-2.824 1.674-2.475 1.484L301 466l-2-1c6.323-8.38 12.882-16.488 19.7-24.47 3.502-4.12 6.914-8.313 10.3-12.53l2.465-3.047c6.29-7.89 11.604-16.155 16.535-24.953l1.719-3.02c9.332-17.402 13.504-39.077 9.156-58.542-3.977-13.093-12.11-24.528-24.23-31.137-31.755-15.62-71.363-16.41-105.055-6.582-15.725 5.612-28.181 13.495-35.961 28.761-8.9 19.23-5.094 40.77 1.934 59.958 6.163 14.588 15.31 27.478 25.437 39.562l1.407 1.683q3.467 4.13 6.968 8.231c7.208 8.457 14.027 17.149 20.625 26.086l-2 1c-2.356-1.057-2.356-1.057-5.328-2.727l-3.328-1.857-3.594-2.041-3.7-2.08c-9.238-5.203-18.376-10.568-27.484-15.994-16.695-9.933-33.615-19.492-50.492-29.11l-3.375-1.925-2.974-1.695L145 407l-2.794-1.204C140 404 140 404 139.371 400.566c-.51-5.13-.519-10.255-.516-15.406l-.01-3.207q-.013-5.23-.013-10.46l-.01-7.342q-.009-7.698-.007-15.398c0-6.517-.014-13.034-.031-19.552q-.015-7.59-.013-15.18 0-3.6-.013-7.198c-.113-38.34-.113-38.34 4.867-56.698l.695-2.734c.545-2.134 1.11-4.263 1.68-6.391l-2.547-.281c-13.377-2.785-25.17-12.717-32.828-23.594-8.896-14.133-11.981-30.761-8.547-47.15 4.003-16.817 13.241-29.451 27.547-38.975 23.757-13.949 52.24-10.948 73.177 6.911"/><path fill="#A45139" d="M448 61c.555.44 1.11.88 1.683 1.332C464.15 73.806 477.942 87.197 489 102l1.556 2.044C498.64 114.678 506.219 125.488 513 137l1.167 1.97c16.526 28.11 27.134 58.233 32.583 90.343l.64 3.756c2.297 14.176 2.818 28.23 2.798 42.556l-.002 2.402c-.025 12.101-.388 23.988-2.186 35.973l-.375 2.66C540.834 363.953 520.771 410.34 490 447l-2.55 3.074c-16.448 19.72-16.448 19.72-25.126 26.973a221 221 0 0 0-5.554 4.844C416.98 517.449 366.618 540.097 314 548l-2.2.355c-34.244 5.378-71.424 2.112-104.8-6.355l-2.625-.651C135.88 524.073 75.252 477.397 39 417c-3.51-5.909-6.811-11.913-10-18l-1.246-2.355C8.416 359.615-.216 317.454-.25 275.875l-.002-2.233C-.168 215.275 18.38 157.442 54 111l1.164-1.554C62.764 99.306 71.193 90.1 80 81l1.564-1.63C87.982 72.691 94.707 66.7 102 61l3.734-2.992c14.97-11.858 31.054-21.978 48.348-30.093 1.93-.92 3.832-1.885 5.734-2.86C249.612-20.227 366.486-3.794 448 61m-283-8-2.269 1.113C147.33 61.77 133.39 71.241 120 82l-3.066 2.441C102.324 96.306 89.112 109.815 78 125l-2.125 2.816C52.05 159.786 35.952 196.49 30 236l-.537 3.375c-1.571 10.905-1.803 21.697-1.779 32.704.003 3.021-.02 6.04-.045 9.062-.06 17.784 1.761 35.208 6.111 52.484l.78 3.15C48.173 390.278 81.354 440.278 126 473l2.676 2.055C163.794 501.593 206.54 516.935 250 522l3.434.402c62.453 5.929 127.398-13.63 175.755-53.594A379 379 0 0 0 437 462l2.977-2.64A479 479 0 0 0 449 451l1.708-1.621c8.06-7.71 15.374-15.695 22.017-24.66a463 463 0 0 1 3.755-4.973c38.103-50.783 53.009-117.079 44.13-179.492-4.11-26.79-11.777-53.454-24.623-77.398a268 268 0 0 1-2.882-5.61C486.281 143.811 477.692 131.526 468 120l-2.562-3.121C453.396 102.37 440.204 89.17 425 78l-2.82-2.129C383.046 46.721 334.852 29.24 286 27l-2.067-.103C243.072 25.127 201.538 35.062 165 53"/><path fill="#A45139" d="m274.25 315.813 3.855-.038c9.872-.015 20.505-.019 28.528 6.565 2.173 2.638 1.839 4.902 1.71 8.207C306.515 343.603 295.148 358.059 285 366l-2.25 2.25c-2.544 2.544-3.639 2.736-7.312 3.188-6.5-.118-10.914-4.065-15.47-8.348-8.819-9.362-17.77-21.953-19.468-34.902.632-4.032 1.425-5.488 4.5-8.188 9.386-4.274 19.13-4.182 29.25-4.187"/><path fill="#090902" d="M317.648 231.094c6.51 4.065 9.473 8.275 11.29 15.781.48 5.897-1.618 11.003-4.688 15.938-4.411 4.288-8.942 6.783-15.137 7.289-6.082-.293-11.927-2.677-16.113-7.102-3.916-5.32-4.688-10.57-4.45-17.094.94-6.077 3.818-9.633 8.575-13.344 6.272-3.408 13.822-4.236 20.523-1.468M250.438 231.688c5.97 5.388 9.73 8.837 10.593 17.093-.073 5.198-2.074 9.68-4.781 14.031-4.411 4.29-8.942 6.784-15.137 7.29-6.082-.293-11.927-2.677-16.113-7.102-3.88-5.271-4.753-10.555-4.508-17.027.981-5.742 3.803-9.755 8.266-13.414 6.504-3.906 14.942-4.179 21.68-.871"/></svg>