<svg xmlns="http://www.w3.org/2000/svg" xmlns:xlink="http://www.w3.org/1999/xlink" viewBox="0 0 500 500" width="500" height="500" preserveAspectRatio="xMidYMid meet" style="width: 100%; height: 100%; transform: translate3d(0px, 0px, 0px); content-visibility: visible;"><defs><clipPath id="__lottie_element_1376"><rect width="500" height="500" x="0" y="0"></rect></clipPath></defs><g clip-path="url(#__lottie_element_1376)"><g transform="matrix(1,0,0,1,250,250)" opacity="1" style="display: block;"><g opacity="1" transform="matrix(1,0,0,1,0,0)"><path stroke-linecap="round" stroke-linejoin="round" fill-opacity="0" stroke="rgb(107,34,120)" stroke-opacity="1" stroke-width="12" d=" M-160.11900329589844,0 C-160.11900329589844,88.43099975585938 -88.43099975585938,160.11900329589844 0,160.11900329589844 C88.43099975585938,160.11900329589844 160.11900329589844,88.43099975585938 160.11900329589844,0 C160.11900329589844,-88.43099975585938 88.43099975585938,-160.11900329589844 0,-160.11900329589844 C-88.43099975585938,-160.11900329589844 -160.11900329589844,-88.43099975585938 -160.11900329589844,0z"></path></g></g><g transform="matrix(1,0,0,1,250,220.98699951171875)" opacity="1" style="display: block;"><g opacity="1" transform="matrix(1,0,0,1,0,0)"><path stroke-linecap="round" stroke-linejoin="round" fill-opacity="0" stroke="rgb(107,34,120)" stroke-opacity="1" stroke-width="12" d=" M18.825000762939453,35.755001068115234 C18.825000762939453,46.154998779296875 10.395000457763672,54.58599853515625 -0.004999999888241291,54.58599853515625 C-10.404999732971191,54.58599853515625 -18.825000762939453,46.154998779296875 -18.825000762939453,35.755001068115234 C-18.825000762939453,34.29499816894531 -18.655000686645508,32.875 -18.334999084472656,31.5049991607666 C-18.334999084472656,31.5049991607666 -0.004999999888241291,-54.58599853515625 -0.004999999888241291,-54.58599853515625 C-0.004999999888241291,-54.58599853515625 18.334999084472656,31.5049991607666 18.334999084472656,31.5049991607666 C18.655000686645508,32.875 18.825000762939453,34.29499816894531 18.825000762939453,35.755001068115234z"></path></g></g><g transform="matrix(1,0,0,1,250,362.57598876953125)" opacity="1" style="display: block;"><g opacity="1" transform="matrix(1,0,0,1,0,0)"><path stroke-linecap="round" stroke-linejoin="round" fill-opacity="0" stroke="rgb(107,34,120)" stroke-opacity="1" stroke-width="12" d=" M4.756999969482422,-26.516000747680664 C4.756999969482422,-26.516000747680664 -15.758000373840332,0 -15.758000373840332,0 C-15.758000373840332,0 15.758000373840332,0 15.758000373840332,0 C15.758000373840332,0 -10.758000373840332,26.516000747680664 -10.758000373840332,26.516000747680664"></path></g></g><g transform="matrix(1,0,0,1,0,0)" opacity="1" style="display: block;"><g opacity="1" transform="matrix(1,0,0,1,250,109.89600372314453)"><path stroke-linecap="round" stroke-linejoin="round" fill-opacity="0" stroke="rgb(107,34,120)" stroke-opacity="1" stroke-width="12" d=" M0,20.014999389648438 C0,20.014999389648438 0,-20.014999389648438 0,-20.014999389648438"></path></g><g opacity="1" transform="matrix(1,0,0,1,179.947998046875,128.66600036621094)"><path stroke-linecap="round" stroke-linejoin="round" fill-opacity="0" stroke="rgb(107,34,120)" stroke-opacity="1" stroke-width="12" d=" M10.006999969482422,17.33300018310547 C10.006999969482422,17.33300018310547 -10.006999969482422,-17.33300018310547 -10.006999969482422,-17.33300018310547"></path></g><g opacity="1" transform="matrix(1,0,0,1,128.66600036621094,179.947998046875)"><path stroke-linecap="round" stroke-linejoin="round" fill-opacity="0" stroke="rgb(107,34,120)" stroke-opacity="1" stroke-width="12" d=" M17.33300018310547,10.006999969482422 C17.33300018310547,10.006999969482422 -17.33300018310547,-10.006999969482422 -17.33300018310547,-10.006999969482422"></path></g><g opacity="1" transform="matrix(1,0,0,1,109.89600372314453,250)"><path stroke-linecap="round" stroke-linejoin="round" fill-opacity="0" stroke="rgb(107,34,120)" stroke-opacity="1" stroke-width="12" d=" M20.014999389648438,0 C20.014999389648438,0 -20.014999389648438,0 -20.014999389648438,0"></path></g><g opacity="1" transform="matrix(1,0,0,1,128.66600036621094,320.052001953125)"><path stroke-linecap="round" stroke-linejoin="round" fill-opacity="0" stroke="rgb(107,34,120)" stroke-opacity="1" stroke-width="12" d=" M17.33300018310547,-10.006999969482422 C17.33300018310547,-10.006999969482422 -17.33300018310547,10.006999969482422 -17.33300018310547,10.006999969482422"></path></g><g opacity="1" transform="matrix(1,0,0,1,371.3340148925781,320.052001953125)"><path stroke-linecap="round" stroke-linejoin="round" fill-opacity="0" stroke="rgb(107,34,120)" stroke-opacity="1" stroke-width="12" d=" M-17.33300018310547,-10.006999969482422 C-17.33300018310547,-10.006999969482422 17.33300018310547,10.006999969482422 17.33300018310547,10.006999969482422"></path></g><g opacity="1" transform="matrix(1,0,0,1,390.10400390625,250)"><path stroke-linecap="round" stroke-linejoin="round" fill-opacity="0" stroke="rgb(107,34,120)" stroke-opacity="1" stroke-width="12" d=" M-20.014999389648438,0 C-20.014999389648438,0 20.014999389648438,0 20.014999389648438,0"></path></g><g opacity="1" transform="matrix(1,0,0,1,371.3340148925781,179.947998046875)"><path stroke-linecap="round" stroke-linejoin="round" fill-opacity="0" stroke="rgb(107,34,120)" stroke-opacity="1" stroke-width="12" d=" M-17.33300018310547,10.006999969482422 C-17.33300018310547,10.006999969482422 17.33300018310547,-10.006999969482422 17.33300018310547,-10.006999969482422"></path></g><g opacity="1" transform="matrix(1,0,0,1,320.052001953125,128.66600036621094)"><path stroke-linecap="round" stroke-linejoin="round" fill-opacity="0" stroke="rgb(107,34,120)" stroke-opacity="1" stroke-width="12" d=" M-10.006999969482422,17.33300018310547 C-10.006999969482422,17.33300018310547 10.006999969482422,-17.33300018310547 10.006999969482422,-17.33300018310547"></path></g><g opacity="1" transform="matrix(1,0,0,1,250,354.1669921875)"><path stroke-linecap="round" stroke-linejoin="round" fill-opacity="0" stroke="rgb(107,34,120)" stroke-opacity="1" stroke-width="12" d=" M59.0099983215332,44.724998474121094 C62.34000015258789,36.974998474121094 64.18000030517578,28.424999237060547 64.18000030517578,19.454999923706055 C64.18000030517578,-15.984999656677246 35.45000076293945,-44.724998474121094 0,-44.724998474121094 C-35.45000076293945,-44.724998474121094 -64.18000030517578,-15.984999656677246 -64.18000030517578,19.454999923706055 C-64.18000030517578,28.424999237060547 -62.34000015258789,36.974998474121094 -59.0099983215332,44.724998474121094"></path></g></g><g style="display: none;"><path></path></g></g></svg>